<svg    viewBox="-265.56338072099794 -57.885104024677 664.6797779500014 121.51187110326498"     xmlns="http://www.w3.org/2000/svg"     xmlns:xlink="http://www.w3.org/1999/xlink"     class="jsx-2263963463 artboard-inner"    style="width: 230px;height: 54.43px;max-height: 100%;margin-top: 0px;"    version="1.1" >     <g transform="scale(1)" fill="#000000">         <path      d="m -207.41605,-21.164951 c -4.45092,0 -8.07235,3.439404 -8.07235,7.667211 0,4.2283407 3.62286,7.6672118 8.07235,7.6672118 4.45032,0 8.07233,-3.4388694 8.07233,-7.6672118 0,-4.227807 -3.62059,-7.667211 -8.07233,-7.667211 z m 0,10.937762 c -1.89705,0 -3.44195,-1.466006 -3.44195,-3.268651 0,-1.80401 1.5449,-3.269728 3.44195,-3.269728 1.89703,0 3.44193,1.465718 3.44193,3.269728 0,1.802645 -1.54348,3.268651 -3.44193,3.268651 z m 37.10951,-10.937762 c -4.45089,0 -8.0729,3.439404 -8.0729,7.667211 0,4.2283407 3.62343,7.6672118 8.0729,7.6672118 4.45262,0 8.07607,-3.4388694 8.07607,-7.6672118 -3e-4,-4.227807 -3.62345,-7.667211 -8.07607,-7.667211 z m 0,10.937762 c -1.89618,0 -3.4425,-1.466006 -3.4425,-3.268651 0,-1.80401 1.54632,-3.269728 3.4425,-3.269728 1.89932,0 3.44595,1.465718 3.44595,3.269728 -3e-4,1.802645 -1.54376,3.268651 -3.44595,3.268651 z m 30.95082,24.960923 c 0,-12.7374204 7.43836,-17.2185112 7.74135,-17.3944321 1.10043,-0.6184369 1.46199,-1.9671622 0.81088,-3.0123703 -0.65255,-1.0471079 -2.07396,-1.3902636 -3.17297,-0.7718249 -0.40844,0.2307598 -10.00996,5.807011 -10.00996,21.1786273 0,8.709976 3.1321,14.309303 5.64796,18.808855 1.80414,3.221142 3.22698,5.767919 3.22698,8.678755 0,2.085802 -0.47789,3.591715 -1.38054,4.360555 -0.91951,0.781598 -2.12085,0.665674 -2.14342,0.665674 -0.10999,-0.0158 -0.22294,-0.02281 -0.33471,-0.02281 h -8.52194 c 0.99183,-1.474692 1.57663,-3.218425 1.57663,-5.095456 V -57.00825 c 0,-0.987107 -0.69343,-1.853411 -1.69581,-2.118932 -0.99926,-0.26768 -2.06511,0.136606 -2.60304,0.981418 l -11.3079,17.778037 c -3.46966,-0.06268 -13.6651,-0.138186 -44.18547,-0.138186 -6.48056,0 -9.6881,0.0035 -11.30847,0.0158 l -10.41697,-19.051032 c -0.49277,-0.900491 -1.57433,-1.365002 -2.60359,-1.123116 -1.03784,0.240535 -1.76757,1.123116 -1.76757,2.136034 V 42.127191 c 0,5.234185 4.48206,9.493474 9.99424,9.493474 h 35.37912 30.52179 16.81236 c 0.15215,0.01282 0.36759,0.02579 0.63597,0.02579 1.13216,0 3.16839,-0.239177 4.96197,-1.709527 2.00164,-1.643554 3.01776,-4.238928 3.01776,-7.717977 0,-4.007356 -1.82987,-7.279807 -3.76692,-10.743109 -2.39466,-4.276393 -5.10773,-9.128058 -5.10773,-16.741516 z m -47.0752,32.489677 h -35.37912 c -2.95746,0 -5.36384,-2.286426 -5.36384,-5.095185 v -91.649805 l 6.70294,12.25689 c 0.42416,0.780249 1.32424,1.231996 2.20144,1.181778 0.46447,-0.01229 3.98672,-0.02493 12.56182,-0.02493 17.79677,0 43.4409,0.05285 45.2379,0.136781 0.87692,0.08885 1.7604,-0.309487 2.23087,-1.048737 l 7.69305,-12.095913 v 91.245296 c 0,2.809032 -2.40553,5.095457 -5.36298,5.095457 h -30.52208 z m 1.62179,-48.6160144 h -8.1032 c -1.27765,0 -2.31549,0.9835811 -2.31549,2.1990088 0,1.2156999 1.03784,2.199281 2.31549,2.199281 h 1.7567 l -0.17119,2.7989847 c -0.076,1.2127132 0.89979,2.2519479 2.17573,2.3236202 0.0451,0.00136 0.0911,0.00298 0.13569,0.00298 1.21792,0 2.23833,-0.9034947 2.3092,-2.0716847 l 0.18694,-3.0552641 h 1.70982 c 1.27821,0 2.3152,-0.9833107 2.3152,-2.1990089 0,-1.2156999 -1.03671,-2.1979237 -2.31493,-2.1979237 z"  />         <path      d="m -110.81257,39.996225 v 0 0 q 0.51271,0 1.64062,0.281981 v 0 0 q 1.23047,0.187986 2.66602,0.563961 v 0 0 q 1.33301,0.281982 2.56349,0.563961 v 0 0 q 1.23045,0.187987 1.64063,0.187987 v 0 0 q 2.871086,0.469968 4.716787,-0.375973 v 0 0 q 1.845702,-0.845943 1.845702,-0.845943 v 0 l 3.896503,-14.381008 v 0 q 5.024414,-18.6107147 9.331052,-37.033444 v 0 0 q 4.204105,-18.328736 9.228535,-37.033447 v 0 0 q -0.30762,-0.09399 -1.333012,-0.09399 v 0 0 q -0.820325,0 -1.94825,-0.187987 v 0 0 q -1.025394,-0.09399 -1.845701,-0.187988 v 0 0 q -0.820307,-0.187985 -0.92286,-0.469966 v 0 0 q -2.563473,-0.187987 -4.101554,-0.375973 v 0 0 q -1.538098,-0.09399 -3.896502,1.315907 v 0 0 q -1.743166,3.477762 -2.666008,7.331496 v 0 0 q -0.820324,3.853733 -1.640631,7.425488 v 0 0 q -1.025393,4.229708 -2.358406,8.459417 v 0 0 q -1.435545,4.135714 -2.460939,8.365423 v 0 0 q -1.435542,5.827598 -2.871095,11.561201 v 0 0 q -1.538081,5.82759825 -3.383801,11.6551962 v 0 h -0.20507 v 0 q -0.71777,3.1017862 -1.94824,7.5194818 v 0 0 q -1.33302,4.417695 -2.56348,9.117371 v 0 0 q -1.33301,4.793669 -2.35841,9.211365 v 0 0 q -1.02538,4.417696 -1.02538,7.425487 z M 5.6719043,-22.227482 v 0 0 q 2.8711099,-1.315909 5.7422037,-4.417695 v 0 0 q 2.871093,-3.007793 5.742187,-4.793671 v 0 0 q 1.025391,-4.417696 -0.820308,-8.27143 v 0 0 q -1.743166,-3.853732 -4.921879,-6.485551 v 0 0 q -2.1533208,-1.691884 -4.306639,-2.44383 v 0 0 q -2.1533369,-0.751949 -4.7168053,-1.503897 v 0 0 q -4.8193444,-1.503896 -9.125984,-1.59789 v 0 0 q -4.3066397,-0.09399 -8.6132957,0.751947 v 0 0 q -4.30664,0.845943 -8.715831,2.631818 v 0 0 q -4.409172,1.879871 -9.331052,4.417695 v 0 0 q -6.870129,3.477762 -13.12502,9.30536 v 0 0 q -6.25489,5.827597 -11.176769,12.689125 v 0 0 q -4.819345,6.95552 -8.100591,14.1930197 v 0 0 q -3.383798,7.33149423 -4.306639,13.8170485 v 0 0 q -0.307619,1.4099023 -0.410154,3.2897709 v 0 0 q -0.102552,1.9738649 0.102552,3.1017859 v 0 0 q -0.61524,1.033929 -0.61524,2.9138 v 0 0 q 0,1.691883 0.30762,3.665746 v 0 0 q 0.30762,1.973865 0.820307,3.759743 v 0 0 q 0.512688,1.785875 0.922859,2.819805 v 0 0 q 0.717774,2.255844 1.435547,4.135715 v 0 0 q 0.717773,1.785875 2.255853,3.665746 v 0 0 q 4.511724,5.545618 10.9717,8.083442 v 0 0 q 6.459961,2.537826 13.945312,2.631818 v 0 0 q 7.587904,0.09399 15.483426,-2.067856 v 0 0 q 7.998057,-2.255844 15.2783233,-6.391559 v 0 0 q 3.5888831,-2.161851 7.8955229,-5.451626 v 0 0 q 4.204104,-3.28977 6.2548857,-6.673539 v 0 0 q 1.5380799,-1.221914 1.9482515,-2.255844 v 0 0 q 0.4101521,-1.033929 0.9228407,-2.631817 v 0 0 Q 5.7744558,17.343789 4.0312905,15.369924 v 0 0 Q 2.3906804,13.39606 -0.07025806,13.11408 v 0 0 q -1.02539304,1.503896 -3.28124624,3.477759 v 0 0 q -2.3584052,1.973865 -5.0244304,3.853734 v 0 0 q -2.6660073,1.879872 -5.2294973,3.571755 v 0 0 q -2.666008,1.59789 -4.409174,2.443831 v 0 0 q -3.486332,1.785877 -7.177749,2.819805 v 0 0 q -3.793953,1.127922 -7.485353,1.503898 v 0 0 q -3.691417,0.375973 -7.280283,-0.09399 v 0 0 q -3.588865,-0.469968 -6.665044,-1.879871 v 0 0 q -5.126964,-2.349837 -7.075198,-6.861525 v 0 0 q -1.948252,-4.511689 -1.743166,-9.963314 v 0 0 q 0.205067,-5.4516239 2.15332,-11.09123452 v 0 0 q 1.948234,-5.63961058 4.716792,-10.24529228 v 0 0 q 2.15332,-3.4777602 4.71681,-6.5795472 v 0 0 q 2.563474,-3.195779 5.332032,-6.297565 v 0 0 q 5.947272,-6.767533 13.33009,-10.621268 v 0 0 q 7.280283,-3.853739 15.8935789,-2.53783 v 0 0 q 6.3574249,0.845943 9.74122316,4.417696 v 0 0 q 3.48630864,3.47776 5.22947484,8.741397 z M 66.990334,36.330479 v 0 0 q 0.820307,-0.563963 2.255857,-1.503898 v 0 0 q 1.435547,-1.033928 1.845715,-1.785876 v 0 0 q -0.102552,-0.281979 -0.717793,-1.691882 v 0 0 q -0.51269,-1.409902 -1.230455,-2.913799 v 0 0 q -0.717774,-1.503896 -1.435551,-2.631819 v 0 0 q -0.717773,-1.221917 -1.230478,-1.127924 v 0 0 q -3.793952,3.101788 -6.459958,4.887664 v 0 0 q -2.563492,1.691884 -4.716811,2.725812 v 0 0 q -2.15332,0.939934 -3.999019,1.409903 v 0 0 q -1.8457,0.375975 -4.204105,0.657954 v 0 0 q -2.871093,0 -6.152357,-0.469967 v 0 0 q -3.281246,-0.469968 -6.049806,-1.691883 v 0 0 Q 32.024481,31.066842 30.281315,28.90499 v 0 0 q -1.8457,-2.067857 -1.538098,-5.545617 v 0 0 q 0,-1.503897 0.71779,-2.819805 v 0 l 1.025376,-0.563961 v 0 q 5.742203,-0.09399 11.381854,-0.28198 v 0 0 q 5.742186,-0.281981 11.689456,-0.75195 v 0 0 q 1.025394,-0.187986 3.588884,-0.375973 v 0 0 q 2.46094,-0.187987 5.126946,-0.563962 v 0 0 q 2.666026,-0.375974 4.92188,-1.127922 v 0 0 q 2.358403,-0.751948 3.076178,-1.785876 v 0 0 q 0.717773,-1.31591 1.435547,-2.63182 v 0 0 q 0.717774,-1.315908 1.435549,-2.7258105 v 0 0 q 0.717774,-1.3159097 0.820326,-2.9137998 v 0 0 q 0.205065,-1.5978888 0.410148,-2.9137984 v 0 0 q 0.922858,-5.075649 -1.127922,-9.4933448 v 0 0 Q 70.784291,-10.94826 65.554788,-13.016118 v 0 0 Q 60.32529,-14.989981 54.0704,-14.426021 v 0 0 q -6.25489,0.563962 -12.714851,3.571755 v 0 0 q -6.562511,2.913799 -11.484387,7.4254861 v 0 0 q -5.024431,4.41769553 -8.305677,9.5873402 v 0 0 Q 18.284238,11.328203 16.951226,17.061807 v 0 0 q -2.358405,10.715262 1.025392,17.106821 v 0 0 q 3.486332,6.485552 10.458997,9.023377 v 0 0 q 6.972664,2.537824 16.098648,1.503897 v 0 0 Q 53.76278,43.56798 62.78623,39.05629 v 0 0 q 0.717774,-0.375974 2.050785,-1.315909 v 0 0 q 1.435546,-0.939935 2.153319,-1.409902 z M 61.965905,9.7303135 v 0 0 q -0.512688,0.093988 -2.666008,0.2819805 v 0 0 q -2.255871,0.187987 -5.332031,0.375974 v 0 0 q -3.076179,0.09399 -6.562511,0.28198 v 0 0 q -3.383797,0.187987 -6.459976,0.375973 v 0 0 q -2.973627,0.09399 -5.024413,0.187989 v 0 0 q -2.153319,0.09399 -2.255853,-0.09399 v 0 0 q -1.127944,-0.28198 -1.640632,-1.033928 v 0 0 q 1.743166,-5.1696454 6.25489,-8.929385 v 0 0 q 4.511725,-3.853734 9.536139,-5.6396106 v 0 0 q 5.024411,-1.7858776 9.536136,-0.939935 v 0 0 q 4.409192,0.7519475 6.152358,4.98165539 v 0 0 q 0.717772,1.4099027 0.717772,3.85373401 v 0 0 q 0,2.1618518 -0.717772,3.9477283 v 0 0 q -0.102553,0.6579548 -0.512708,1.3159097 v 0 0 q -0.3076,0.657953 -1.025391,1.0339284 z M 129.94938,40.65418 v 0 0 q 1.0254,-1.221915 1.94823,-3.289773 v 0 0 q 0.92286,-2.16185 1.74317,-4.323702 v 0 0 q 0.82033,-2.255843 1.43557,-4.417694 v 0 0 q 0.61522,-2.161852 0.92283,-3.477762 v 0 0 q 1.53811,-6.767532 2.97365,-13.441071 v 0 0 q 1.43555,-6.767534 0,-13.0650993 v 0 0 q -1.23048,-6.2975663 -5.22951,-8.5534101 v 0 0 q -3.89648,-2.2558436 -9.02343,-1.5978896 v 0 0 q -5.12697,0.563961 -10.66409,3.3837668 v 0 0 q -5.63964,2.8198056 -10.25391,6.6735397 v 0 0 q 1.02539,-4.3237022 0.61524,-8.4594169 v 0 0 q -0.71777,0 -1.74318,-0.2819806 v 0 0 q -1.12791,-0.187988 -1.94825,0.2819806 v 0 0 q -0.51268,0.1879872 -1.230443,0.1879872 v 0 0 q -0.717774,0 -1.538101,0 v 0 0 q -0.820317,0.093989 -1.538081,0.1879873 v 0 0 q -0.717774,0.1879871 -1.025404,0.4699665 v 0 0 q -0.615231,0.3759745 -1.640634,3.7597418 v 0 0 Q 92.830214,-1.8308897 91.4972,3.2447619 v 0 0 Q 90.164186,8.2264175 88.933724,14.148009 v 0 0 q -1.333014,5.827598 -2.563495,11.091235 v 0 0 q -1.230452,5.263636 -1.948233,9.11737 v 0 0 q -0.820317,3.947729 -1.127949,4.981656 v 0 0 q 0.307632,1.127922 1.640627,1.597891 v 0 0 q 1.230488,0.469967 2.973646,0.469967 v 0 0 q 1.743169,0 3.486337,-0.09399 v 0 0 q 1.640615,-0.187986 2.871096,-0.187986 v 0 0 q 0,0 0.205058,-1.03393 v 0 0 q 0.205096,-1.127921 0.512716,-2.067856 v 0 0 q 1.538081,-6.767533 3.28124,-13.535067 v 0 0 q 1.845713,-6.861527 5.126973,-13.629059 v 0 0 q 1.02539,-2.1618512 3.28125,-4.3237029 v 0 0 q 2.15331,-2.2558437 4.81935,-3.7597395 v 0 0 q 2.56346,-1.5038971 5.22948,-2.16185189 v 0 0 q 2.76857,-0.65795346 5.02442,0.0939846 v 0 0 q 2.15334,0.75194919 3.48633,3.00779299 v 0 0 q 1.333,2.3498394 1.02539,6.6735407 v 0 0 q -0.41015,5.639612 -2.05078,11.467207 v 0 0 q -1.43555,4.699676 -2.76854,9.399353 v 0 0 q -1.33301,4.793668 -2.56349,9.399351 v 0 0 q 1.43554,0.751948 3.17871,1.033929 v 0 0 q 1.74317,0.281981 3.89649,-0.375975 v 0 0 q 1.02538,-0.281978 2.05078,-0.375972 v 0 0 q 0.92285,-0.187989 1.94825,-0.281983 z m 89.92685,-89.857802 v 0 0 q -12.81742,0.09399 -24.60941,1.033929 v 0 0 q -11.89454,0.939937 -24.81448,3.007793 v 0 0 q 0,0.751949 -0.61522,3.571754 v 0 0 q -0.51269,2.725812 -1.53808,6.485551 v 0 0 q -1.0254,3.759741 -2.25588,8.083443 v 0 0 q -1.23047,4.323702 -2.35841,8.177436 v 0 0 q -1.12792,3.853735 -1.94823,6.673541 v 0 0 q -0.71778,2.8198052 -0.92286,3.7597399 v 0 0 q -0.71778,3.665747 -2.15332,8.64740403 v 0 0 Q 157.12227,5.2186249 155.58416,10.388268 v 0 0 q -1.53807,5.075649 -2.46093,9.869318 v 0 0 q -1.02541,4.699677 -0.92285,7.895456 v 0 0 q 0,1.409903 -0.41017,3.007793 v 0 0 q -0.41015,1.597891 -0.41015,3.007793 v 0 0 q -0.30762,1.503896 0,2.631818 v 0 0 q 0.30762,1.033928 0,2.537824 v 0 0 q 1.0254,1.127922 2.5635,1.597891 v 0 0 q 1.53807,0.469967 3.48632,0.469967 v 0 0 q 1.64062,0 5.5371,-0.187986 v 0 0 q 3.89649,-0.187986 8.61331,-0.469969 v 0 0 q 4.71678,-0.375974 9.94627,-0.939934 v 0 0 q 5.33207,-0.469969 9.94632,-1.03393 v 0 0 q 4.71679,-0.469966 8.10059,-1.033928 v 0 0 q 3.48634,-0.563962 4.71682,-1.033928 v 0 0 q 1.74317,-1.691883 1.94822,-2.819806 v 0 0 q 0.20509,-1.033928 0.51271,-2.725812 v 0 0 q 0,-1.409902 -0.30762,-1.973864 v 0 0 q -0.20509,-0.56396 0,-1.59789 v 0 0 q -0.92286,-1.127922 -3.79395,-1.59789 v 0 0 q -2.87109,-0.375973 -6.66505,-0.375973 v 0 0 q -3.69141,0 -8.1006,0.375973 v 0 0 q -4.40918,0.469968 -8.40819,0.939937 v 0 0 q -4.10159,0.375972 -7.58791,0.845941 v 0 0 q -3.48634,0.469967 -5.33204,0.657955 v 0 0 q 0.41016,-1.973865 1.12794,-5.451624 v 0 0 q 0.71776,-3.571754 1.53807,-7.237502 v 0 0 q 0.82032,-3.75974 1.43556,-7.2374992 v 0 0 q 0.61522,-3.5717548 0.92286,-5.5456177 v 0 l 6.76756,-0.3759752 v 0 q 1.02541,-0.9399343 5.33205,-1.3159095 v 0 0 q 4.30664,-0.37597392 9.33106,-0.46996716 v 0 0 q 5.02443,-0.18798762 9.63869,-0.28197954 v 0 0 q 4.51172,-0.18798762 6.45995,-0.37597515 v 0 0 q 0.51271,-0.65795477 1.12797,-2.06785745 v 0 0 q 0.51268,-1.4099026 0.82029,-2.8198052 v 0 0 q 0.20506,-1.5038967 0.20506,-2.819806 v 0 0 q 0,-1.4099027 -0.51267,-2.0678565 v 0 0 q -0.92287,-0.7519494 -3.79397,-0.9399364 v 0 0 q -2.76854,-0.09399 -6.35742,0.09399 v 0 0 q -3.58886,0.187987 -7.5879,0.5639615 v 0 0 q -3.99901,0.3759744 -7.58789,0.6579553 v 0 0 q -3.58887,0.2819793 -6.15236,0.1879857 v 0 0 q -2.46094,-0.1879852 -3.17871,-0.9399345 v 0 0 q 0.41016,-1.879871 1.23047,-5.169643 v 0 0 q 0.92285,-3.383767 1.84571,-7.049513 v 0 0 q 1.02538,-3.571755 2.15332,-6.767533 v 0 0 q 1.23046,-3.101787 2.05078,-4.699678 v 0 0 q 4.61426,-0.845941 9.02346,-0.845941 v 0 0 q 4.5117,-0.09399 9.02343,-0.469966 v 0 0 q 3.58888,-0.375976 7.17774,-0.657957 v 0 0 q 3.48634,-0.28198 7.07521,-0.657953 v 0 0 q 0.30762,-0.281982 1.64063,-0.375976 v 0 0 q 1.33301,0 2.97363,0 v 0 0 q 1.53809,0 2.87111,0 v 0 0 q 1.43556,0 1.74315,-0.187986 v 0 0 q 1.12794,-0.657954 1.5381,-1.31591 v 0 0 q 0.41015,-0.751948 0.61524,-1.503895 v 0 0 q 0.10255,-0.751948 0.10255,-1.409903 v 0 0 q 0,-0.751948 0.30761,-1.503897 v 0 0 q 0.30763,-1.221915 0.41017,-2.443831 v 0 0 q 0.10255,-1.127922 0.41014,-2.44383 v 0 0 q -0.51268,-0.187988 -1.74317,-0.469969 v 0 0 q -1.12792,-0.375975 -2.3584,-0.563962 v 0 0 q -1.33299,-0.281979 -2.56347,-0.469966 v 0 0 q -1.23048,-0.187983 -1.74318,-0.187984 z" />     </g>     </svg>